<svg width="52" height="52" viewBox="0 0 52 52" fill="none" xmlns="http://www.w3.org/2000/svg">
<path d="M4.11328 21.7324H47.4466" stroke="#6A7686" stroke-width="3" stroke-miterlimit="10" stroke-linecap="round" stroke-linejoin="round"/>
<path d="M24.8266 44.4816H13.7548C6.06318 44.4816 4.11328 42.5749 4.11328 34.9699V17.1599C4.11328 10.2699 5.71655 8.05993 11.7615 7.71326C12.3682 7.6916 13.0398 7.66992 13.7548 7.66992H37.8266C45.5183 7.66992 47.4682 9.57659 47.4682 17.1816V26.7366" stroke="#6A7686" stroke-width="3" stroke-linecap="round" stroke-linejoin="round"/>
<path d="M38.7799 47.7318C43.5664 47.7318 47.4466 43.8516 47.4466 39.0651C47.4466 34.2786 43.5664 30.3984 38.7799 30.3984C33.9935 30.3984 30.1133 34.2786 30.1133 39.0651C30.1133 43.8516 33.9935 47.7318 38.7799 47.7318Z" stroke="#6A7686" stroke-width="3" stroke-miterlimit="10" stroke-linecap="round" stroke-linejoin="round"/>
<path d="M41.1003 41.4918L36.5286 36.8984" stroke="#6A7686" stroke-width="3" stroke-miterlimit="10" stroke-linecap="round" stroke-linejoin="round"/>
<path d="M41.0543 36.9639L36.4609 41.5355" stroke="#6A7686" stroke-width="3" stroke-miterlimit="10" stroke-linecap="round" stroke-linejoin="round"/>
<path d="M12.78 34.7324H21.4466" stroke="#6A7686" stroke-width="3" stroke-miterlimit="10" stroke-linecap="round" stroke-linejoin="round"/>
</svg>
