<svg width="16" height="16" viewBox="0 0 16 16" fill="none" xmlns="http://www.w3.org/2000/svg">
<path d="M8 1.3335C4.32666 1.3335 1.33333 4.32683 1.33333 8.00016C1.33333 11.6735 4.32666 14.6668 8 14.6668C11.6733 14.6668 14.6667 11.6735 14.6667 8.00016C14.6667 4.32683 11.6733 1.3335 8 1.3335ZM10.9 10.3802C10.8067 10.5402 10.64 10.6268 10.4667 10.6268C10.38 10.6268 10.2933 10.6068 10.2133 10.5535L8.14666 9.32016C7.63333 9.0135 7.25333 8.34016 7.25333 7.74683V5.0135C7.25333 4.74016 7.48 4.5135 7.75333 4.5135C8.02666 4.5135 8.25333 4.74016 8.25333 5.0135V7.74683C8.25333 7.98683 8.45333 8.34016 8.66 8.46016L10.7267 9.6935C10.9667 9.8335 11.0467 10.1402 10.9 10.3802Z" fill="#6A7686"/>
</svg>
