<svg width="25" height="24" viewBox="0 0 25 24" fill="none" xmlns="http://www.w3.org/2000/svg">
<path d="M17.5 22H7.5C7.09 22 6.75 21.66 6.75 21.25C6.75 20.84 7.09 20.5 7.5 20.5H17.5C17.91 20.5 18.25 20.84 18.25 21.25C18.25 21.66 17.91 22 17.5 22Z" fill="white"/>
<path d="M20.85 5.52004L16.85 8.38004C16.32 8.76004 15.56 8.53004 15.33 7.92004L13.44 2.88004C13.12 2.01004 11.89 2.01004 11.57 2.88004L9.66998 7.91004C9.43998 8.53004 8.68997 8.76004 8.15998 8.37004L4.15998 5.51004C3.35998 4.95004 2.29998 5.74004 2.62998 6.67004L6.78998 18.32C6.92998 18.72 7.30998 18.98 7.72998 18.98H17.26C17.68 18.98 18.06 18.71 18.2 18.32L22.36 6.67004C22.7 5.74004 21.64 4.95004 20.85 5.52004ZM15 14.75H9.99998C9.58998 14.75 9.24998 14.41 9.24998 14C9.24998 13.59 9.58998 13.25 9.99998 13.25H15C15.41 13.25 15.75 13.59 15.75 14C15.75 14.41 15.41 14.75 15 14.75Z" fill="white"/>
</svg>
