<svg width="16" height="16" viewBox="0 0 16 16" fill="none" xmlns="http://www.w3.org/2000/svg">
<path d="M11.3334 14.667H4.66669C4.39335 14.667 4.16669 14.4403 4.16669 14.167C4.16669 13.8937 4.39335 13.667 4.66669 13.667H11.3334C11.6067 13.667 11.8334 13.8937 11.8334 14.167C11.8334 14.4403 11.6067 14.667 11.3334 14.667Z" fill="#6A7686"/>
<path d="M13.5667 3.68035L10.9 5.58702C10.5467 5.84035 10.04 5.68702 9.88669 5.28035L8.62669 1.92035C8.41336 1.34035 7.59336 1.34035 7.38002 1.92035L6.11336 5.27368C5.96002 5.68702 5.46002 5.84035 5.10669 5.58035L2.44002 3.67369C1.90669 3.30035 1.20002 3.82702 1.42002 4.44702L4.19336 12.2137C4.28669 12.4804 4.54002 12.6537 4.82002 12.6537H11.1734C11.4534 12.6537 11.7067 12.4737 11.8 12.2137L14.5734 4.44702C14.8 3.82702 14.0934 3.30035 13.5667 3.68035ZM9.66669 9.83368H6.33336C6.06002 9.83368 5.83336 9.60702 5.83336 9.33368C5.83336 9.06035 6.06002 8.83368 6.33336 8.83368H9.66669C9.94002 8.83368 10.1667 9.06035 10.1667 9.33368C10.1667 9.60702 9.94002 9.83368 9.66669 9.83368Z" fill="#6A7686"/>
</svg>
