<svg width="24" height="24" viewBox="0 0 24 24" fill="none" xmlns="http://www.w3.org/2000/svg">
<path d="M16.7002 18.9804H7.3002C6.8802 18.9804 6.4102 18.6504 6.2702 18.2504L2.1302 6.67035C1.5402 5.01035 2.2302 4.50035 3.6502 5.52035L7.5502 8.31035C8.2002 8.76035 8.9402 8.53035 9.2202 7.80035L10.9802 3.11035C11.5402 1.61035 12.4702 1.61035 13.0302 3.11035L14.7902 7.80035C15.0702 8.53035 15.8102 8.76035 16.4502 8.31035L20.1102 5.70035C21.6702 4.58035 22.4202 5.15035 21.7802 6.96035L17.7402 18.2704C17.5902 18.6504 17.1202 18.9804 16.7002 18.9804Z" stroke="#165DFF" stroke-width="1.5" stroke-linecap="round" stroke-linejoin="round"/>
<path d="M6.5 22H17.5" stroke="#165DFF" stroke-width="1.5" stroke-linecap="round" stroke-linejoin="round"/>
<path d="M9.5 14H14.5" stroke="#165DFF" stroke-width="1.5" stroke-linecap="round" stroke-linejoin="round"/>
</svg>
