<svg width="16" height="16" viewBox="0 0 16 16" fill="none" xmlns="http://www.w3.org/2000/svg">
<path d="M11.3334 14.6665H4.66669C4.39335 14.6665 4.16669 14.4398 4.16669 14.1665C4.16669 13.8932 4.39335 13.6665 4.66669 13.6665H11.3334C11.6067 13.6665 11.8334 13.8932 11.8334 14.1665C11.8334 14.4398 11.6067 14.6665 11.3334 14.6665Z" fill="#165DFF"/>
<path d="M13.5667 3.67986L10.9 5.58653C10.5467 5.83986 10.04 5.68653 9.88669 5.27986L8.62669 1.91986C8.41336 1.33986 7.59336 1.33986 7.38002 1.91986L6.11336 5.2732C5.96002 5.68653 5.46002 5.83986 5.10669 5.57986L2.44002 3.6732C1.90669 3.29986 1.20002 3.82653 1.42002 4.44653L4.19336 12.2132C4.28669 12.4799 4.54002 12.6532 4.82002 12.6532H11.1734C11.4534 12.6532 11.7067 12.4732 11.8 12.2132L14.5734 4.44653C14.8 3.82653 14.0934 3.29986 13.5667 3.67986ZM9.66669 9.8332H6.33336C6.06002 9.8332 5.83336 9.60653 5.83336 9.3332C5.83336 9.05986 6.06002 8.8332 6.33336 8.8332H9.66669C9.94002 8.8332 10.1667 9.05986 10.1667 9.3332C10.1667 9.60653 9.94002 9.8332 9.66669 9.8332Z" fill="#165DFF"/>
</svg>
