<svg width="44" height="44" viewBox="0 0 44 44" fill="none" xmlns="http://www.w3.org/2000/svg">
<rect width="44" height="44" rx="16" fill="#F5BE4F" fill-opacity="0.09"/>
<path d="M26 12H18C14.5 12 13 14 13 17V27C13 30 14.5 32 18 32H26C29.5 32 31 30 31 27V17C31 14 29.5 12 26 12ZM18 22.25H22C22.41 22.25 22.75 22.59 22.75 23C22.75 23.41 22.41 23.75 22 23.75H18C17.59 23.75 17.25 23.41 17.25 23C17.25 22.59 17.59 22.25 18 22.25ZM26 27.75H18C17.59 27.75 17.25 27.41 17.25 27C17.25 26.59 17.59 26.25 18 26.25H26C26.41 26.25 26.75 26.59 26.75 27C26.75 27.41 26.41 27.75 26 27.75ZM28.5 19.25H26.5C24.98 19.25 23.75 18.02 23.75 16.5V14.5C23.75 14.09 24.09 13.75 24.5 13.75C24.91 13.75 25.25 14.09 25.25 14.5V16.5C25.25 17.19 25.81 17.75 26.5 17.75H28.5C28.91 17.75 29.25 18.09 29.25 18.5C29.25 18.91 28.91 19.25 28.5 19.25Z" fill="#F5BE4F"/>
</svg>
