<svg width="44" height="44" viewBox="0 0 44 44" fill="none" xmlns="http://www.w3.org/2000/svg">
<rect width="44" height="44" rx="12" fill="#F5BE4F" fill-opacity="0.09"/>
<path d="M22.75 25.9198H23.4C24.05 25.9198 24.59 25.3398 24.59 24.6398C24.59 23.7698 24.28 23.5998 23.77 23.4198L22.76 23.0698V25.9198H22.75Z" fill="#F5BE4F"/>
<path d="M21.97 11.8999C16.45 11.9199 11.98 16.4099 12 21.9299C12.02 27.4499 16.51 31.9199 22.03 31.8999C27.55 31.8799 32.02 27.3899 32 21.8699C31.98 16.3499 27.49 11.8899 21.97 11.8999ZM24.26 21.9999C25.04 22.2699 26.09 22.8499 26.09 24.6399C26.09 26.1799 24.88 27.4199 23.4 27.4199H22.75V27.9999C22.75 28.4099 22.41 28.7499 22 28.7499C21.59 28.7499 21.25 28.4099 21.25 27.9999V27.4199H20.89C19.25 27.4199 17.92 26.0399 17.92 24.3399C17.92 23.9299 18.26 23.5899 18.67 23.5899C19.08 23.5899 19.42 23.9299 19.42 24.3399C19.42 25.2099 20.08 25.9199 20.89 25.9199H21.25V22.5399L19.74 21.9999C18.96 21.7299 17.91 21.1499 17.91 19.3599C17.91 17.8199 19.12 16.5799 20.6 16.5799H21.25V15.9999C21.25 15.5899 21.59 15.2499 22 15.2499C22.41 15.2499 22.75 15.5899 22.75 15.9999V16.5799H23.11C24.75 16.5799 26.08 17.9599 26.08 19.6599C26.08 20.0699 25.74 20.4099 25.33 20.4099C24.92 20.4099 24.58 20.0699 24.58 19.6599C24.58 18.7899 23.92 18.0799 23.11 18.0799H22.75V21.4599L24.26 21.9999Z" fill="#F5BE4F"/>
<path d="M19.42 19.3701C19.42 20.2401 19.73 20.4101 20.24 20.5901L21.25 20.9401V18.0801H20.6C19.95 18.0801 19.42 18.6601 19.42 19.3701Z" fill="#F5BE4F"/>
</svg>
