<svg width="25" height="25" viewBox="0 0 25 25" fill="none" xmlns="http://www.w3.org/2000/svg">
<path d="M21.5 22.5H3.5C3.09 22.5 2.75 22.16 2.75 21.75C2.75 21.34 3.09 21 3.5 21H21.5C21.91 21 22.25 21.34 22.25 21.75C22.25 22.16 21.91 22.5 21.5 22.5Z" fill="white"/>
<path d="M19.52 3.97991C17.58 2.03991 15.68 1.98991 13.69 3.97991L12.48 5.18991C12.38 5.28991 12.34 5.44991 12.38 5.58991C13.14 8.23991 15.26 10.3599 17.91 11.1199C17.95 11.1299 17.99 11.1399 18.03 11.1399C18.14 11.1399 18.24 11.0999 18.32 11.0199L19.52 9.80991C20.51 8.82991 20.99 7.87991 20.99 6.91991C21 5.92991 20.52 4.96991 19.52 3.97991Z" fill="white"/>
<path d="M16.11 12.03C15.82 11.89 15.54 11.75 15.27 11.59C15.05 11.46 14.84 11.32 14.63 11.17C14.46 11.06 14.26 10.9 14.07 10.74C14.05 10.73 13.98 10.67 13.9 10.59C13.57 10.31 13.2 9.95005 12.87 9.55005C12.84 9.53005 12.79 9.46005 12.72 9.37005C12.62 9.25005 12.45 9.05005 12.3 8.82005C12.18 8.67005 12.04 8.45005 11.91 8.23005C11.75 7.96005 11.61 7.69005 11.47 7.41005C11.4488 7.36465 11.4283 7.31949 11.4085 7.27458C11.2609 6.94127 10.8262 6.84382 10.5685 7.10158L4.84001 12.83C4.71001 12.96 4.59001 13.21 4.56001 13.38L4.02001 17.21C3.92001 17.89 4.11001 18.53 4.53001 18.96C4.89001 19.31 5.39001 19.5 5.93001 19.5C6.05001 19.5 6.17001 19.49 6.29001 19.47L10.13 18.93C10.31 18.9 10.56 18.78 10.68 18.65L16.4013 12.9287C16.6609 12.6692 16.563 12.2237 16.2254 12.0797C16.1874 12.0634 16.1489 12.0469 16.11 12.03Z" fill="white"/>
</svg>
