<svg width="24" height="25" viewBox="0 0 24 25" fill="none" xmlns="http://www.w3.org/2000/svg">
<path d="M15.58 12.4999C15.58 14.4799 13.98 16.0799 12 16.0799C10.02 16.0799 8.42 14.4799 8.42 12.4999C8.42 10.5199 10.02 8.91992 12 8.91992C13.98 8.91992 15.58 10.5199 15.58 12.4999Z" stroke="#6A7686" stroke-width="1.5" stroke-linecap="round" stroke-linejoin="round"/>
<path d="M12 20.77C15.53 20.77 18.82 18.69 21.11 15.09C22.01 13.68 22.01 11.31 21.11 9.89997C18.82 6.29997 15.53 4.21997 12 4.21997C8.47 4.21997 5.18 6.29997 2.89 9.89997C1.99 11.31 1.99 13.68 2.89 15.09C5.18 18.69 8.47 20.77 12 20.77Z" stroke="#6A7686" stroke-width="1.5" stroke-linecap="round" stroke-linejoin="round"/>
</svg>
