<svg width="16" height="16" viewBox="0 0 16 16" fill="none" xmlns="http://www.w3.org/2000/svg">
<path d="M6 14.6667H10C13.3333 14.6667 14.6667 13.3333 14.6667 10V6.00001C14.6667 2.66668 13.3333 1.33334 10 1.33334H6C2.66666 1.33334 1.33333 2.66668 1.33333 6.00001V10C1.33333 13.3333 2.66666 14.6667 6 14.6667Z" stroke="#6A7686" stroke-width="1.3" stroke-linecap="round" stroke-linejoin="round"/>
<path d="M6.00001 6.66667C6.73639 6.66667 7.33334 6.06971 7.33334 5.33333C7.33334 4.59695 6.73639 4 6.00001 4C5.26363 4 4.66667 4.59695 4.66667 5.33333C4.66667 6.06971 5.26363 6.66667 6.00001 6.66667Z" stroke="#6A7686" stroke-width="1.3" stroke-linecap="round" stroke-linejoin="round"/>
<path d="M1.78 12.6333L5.06667 10.4267C5.59333 10.0733 6.35333 10.1133 6.82667 10.52L7.04667 10.7133C7.56667 11.16 8.40667 11.16 8.92667 10.7133L11.7 8.33332C12.22 7.88665 13.06 7.88665 13.58 8.33332L14.6667 9.26665" stroke="#6A7686" stroke-width="1.3" stroke-linecap="round" stroke-linejoin="round"/>
</svg>
