<svg width="16" height="16" viewBox="0 0 16 16" fill="none" xmlns="http://www.w3.org/2000/svg">
<path d="M13.6934 12.6932C13.5934 12.7932 13.4668 12.8399 13.3401 12.8399C13.2134 12.8399 13.0868 12.7932 12.9868 12.6932L9.68677 9.39319L10.0401 9.03986L10.3934 8.68652L13.6934 11.9865C13.8868 12.1799 13.8868 12.4999 13.6934 12.6932Z" fill="#ED6B60"/>
<path d="M4.31332 6.18705L8.17999 10.0537C8.43999 10.3137 8.43999 10.7337 8.17999 10.9937L7.57999 11.6004C7.03999 12.1337 6.18666 12.1337 5.65332 11.6004L2.75999 8.70705C2.23332 8.18039 2.23332 7.32039 2.75999 6.78705L3.36666 6.18039C3.62666 5.92705 4.05332 5.92705 4.31332 6.18705Z" fill="#ED6B60"/>
<path d="M12.3934 6.79313L9.85342 9.32646C9.58675 9.59313 9.16009 9.59313 8.89342 9.32646L5.04009 5.47313C4.77342 5.20646 4.77342 4.77979 5.04009 4.51313L7.58009 1.97313C8.10675 1.44646 8.96675 1.44646 9.50009 1.97313L12.3934 4.86646C12.9201 5.39979 12.9201 6.25313 12.3934 6.79313Z" fill="#ED6B60"/>
<path d="M5.33325 14.5H1.33325C1.05992 14.5 0.833252 14.2733 0.833252 14C0.833252 13.7267 1.05992 13.5 1.33325 13.5H5.33325C5.60659 13.5 5.83325 13.7267 5.83325 14C5.83325 14.2733 5.60659 14.5 5.33325 14.5Z" fill="#ED6B60"/>
</svg>
