<svg width="24" height="24" viewBox="0 0 24 24" fill="none" xmlns="http://www.w3.org/2000/svg">
<path d="M12.5 14.25H10C9.86614 14.25 9.75 14.1339 9.75 14C9.75 13.8661 9.86614 13.75 10 13.75H12.5C15.3961 13.75 17.75 11.3961 17.75 8.5C17.75 5.60386 15.3961 3.25 12.5 3.25H7.5C4.60386 3.25 2.25 5.60386 2.25 8.5C2.25 9.71735 2.68116 10.8988 3.45299 11.8366C3.54053 11.9457 3.52732 12.1021 3.42108 12.1948C3.31154 12.2808 3.15571 12.2664 3.06378 12.1595C2.21814 11.1285 1.75 9.83172 1.75 8.5C1.75 5.32614 4.32614 2.75 7.5 2.75H12.5C15.6739 2.75 18.25 5.32614 18.25 8.5C18.25 11.6739 15.6739 14.25 12.5 14.25Z" stroke="#6A7686"/>
<path d="M11.5 21.25C8.32614 21.25 5.75 18.6739 5.75 15.5C5.75 12.3261 8.32614 9.75 11.5 9.75H14C14.1339 9.75 14.25 9.86614 14.25 10C14.25 10.1339 14.1339 10.25 14 10.25H11.5C8.60386 10.25 6.25 12.6039 6.25 15.5C6.25 18.3961 8.60386 20.75 11.5 20.75H16.5C19.3961 20.75 21.75 18.3961 21.75 15.5C21.75 14.2826 21.3188 13.1012 20.547 12.1634C20.4585 12.0531 20.473 11.8945 20.5824 11.8021C20.6816 11.7185 20.8368 11.7239 20.9369 11.8413C21.7915 12.8714 22.2598 14.1674 22.26 15.4992C22.2504 18.6742 19.6734 21.25 16.5 21.25H11.5Z" stroke="#6A7686"/>
</svg>
