<svg width="25" height="24" viewBox="0 0 25 24" fill="none" xmlns="http://www.w3.org/2000/svg">
<path d="M20.36 8.09009C20.36 8.51009 20.33 8.92009 20.28 9.31009C19.82 9.11009 19.32 9.00009 18.79 9.00009C17.57 9.00009 16.49 9.59008 15.82 10.4901C15.14 9.59008 14.06 9.00009 12.84 9.00009C10.79 9.00009 9.13 10.6701 9.13 12.7401C9.13 15.4201 10.55 17.4701 12.13 18.8601C12.08 18.8901 12.03 18.9001 11.98 18.9201C11.68 19.0301 11.18 19.0301 10.88 18.9201C8.29 18.0301 2.5 14.3501 2.5 8.09009C2.5 5.33009 4.71999 3.1001 7.45999 3.1001C9.08999 3.1001 10.53 3.88009 11.43 5.09009C12.34 3.88009 13.78 3.1001 15.4 3.1001C18.14 3.1001 20.36 5.33009 20.36 8.09009Z" stroke="#F97316" stroke-width="1.5" stroke-linecap="round" stroke-linejoin="round"/>
<path d="M22.5 12.74C22.5 17.42 18.17 20.18 16.23 20.84C16 20.92 15.63 20.92 15.4 20.84C14.57 20.56 13.3 19.89 12.13 18.86C10.55 17.47 9.13 15.42 9.13 12.74C9.13 10.67 10.79 9 12.84 9C14.06 9 15.14 9.58999 15.82 10.49C16.49 9.58999 17.57 9 18.79 9C19.32 9 19.82 9.11 20.28 9.31C21.59 9.89 22.5 11.2 22.5 12.74Z" stroke="#F97316" stroke-width="1.5" stroke-linecap="round" stroke-linejoin="round"/>
</svg>
