<svg width="62" height="62" viewBox="0 0 62 62" fill="none" xmlns="http://www.w3.org/2000/svg">
<path d="M54.8959 47.7141L50.6334 48.7216C49.6776 48.9541 48.9284 49.6775 48.7217 50.6333L47.8176 54.4308C47.3267 56.4975 44.6917 57.1433 43.3226 55.5158L35.5984 46.6291C34.9784 45.9058 35.3142 44.7691 36.2442 44.5366C40.8167 43.4258 44.9242 40.8683 47.9467 37.2258C48.4376 36.6316 49.3159 36.5541 49.8584 37.0966L55.5934 42.8316C57.5567 44.795 56.8592 47.2491 54.8959 47.7141Z" fill="#080C1A"/>
<path d="M6.97505 47.7141L11.2376 48.7216C12.1934 48.9541 12.9426 49.6775 13.1492 50.6333L14.0534 54.4308C14.5442 56.4975 17.1792 57.1433 18.5484 55.5158L26.2726 46.6291C26.8926 45.9058 26.5567 44.7691 25.6267 44.5366C21.0542 43.4258 16.9467 40.8683 13.9242 37.2258C13.4334 36.6316 12.5551 36.5541 12.0126 37.0966L6.27755 42.8316C4.31422 44.795 5.01172 47.2491 6.97505 47.7141Z" fill="#080C1A"/>
<path d="M31.0001 5.1665C21.0026 5.1665 12.9167 13.2523 12.9167 23.2498C12.9167 26.9957 14.0276 30.4315 15.9392 33.299C18.7292 37.4323 23.1467 40.3515 28.2876 41.1007C29.1659 41.2557 30.0701 41.3332 31.0001 41.3332C31.9301 41.3332 32.8342 41.2557 33.7126 41.1007C38.8534 40.3515 43.2709 37.4323 46.0609 33.299C47.9726 30.4315 49.0834 26.9957 49.0834 23.2498C49.0834 13.2523 40.9976 5.1665 31.0001 5.1665ZM38.9051 22.6815L36.7609 24.8257C36.3992 25.1873 36.1926 25.8848 36.3217 26.4015L36.9417 29.0623C37.4326 31.1548 36.3217 31.9815 34.4617 30.8707L31.8784 29.3465C31.4134 29.0623 30.6384 29.0623 30.1734 29.3465L27.5901 30.8707C25.7301 31.9557 24.6192 31.1548 25.1101 29.0623L25.7301 26.4015C25.8334 25.9107 25.6526 25.1873 25.2909 24.8257L23.0951 22.6815C21.8292 21.4157 22.2426 20.1498 23.9992 19.8657L26.7634 19.4007C27.2284 19.3232 27.7709 18.9098 27.9776 18.4965L29.5017 15.4482C30.3284 13.7948 31.6717 13.7948 32.4984 15.4482L34.0226 18.4965C34.2292 18.9098 34.7717 19.3232 35.2626 19.4007L38.0267 19.8657C39.7576 20.1498 40.1709 21.4157 38.9051 22.6815Z" fill="#080C1A"/>
</svg>
