<svg width="44" height="44" viewBox="0 0 44 44" fill="none" xmlns="http://www.w3.org/2000/svg">
<rect width="44" height="44" rx="12" fill="white"/>
<path d="M30.3077 16H13.6923C13.3138 16 13 15.5467 13 15C13 14.4533 13.3138 14 13.6923 14H30.3077C30.6862 14 31 14.4533 31 15C31 15.5467 30.6862 16 30.3077 16Z" fill="#6A7686"/>
<path d="M30.3077 23H13.6923C13.3138 23 13 22.5467 13 22C13 21.4533 13.3138 21 13.6923 21H30.3077C30.6862 21 31 21.4533 31 22C31 22.5467 30.6862 23 30.3077 23Z" fill="#6A7686"/>
<path d="M30.3077 30H13.6923C13.3138 30 13 29.5467 13 29C13 28.4533 13.3138 28 13.6923 28H30.3077C30.6862 28 31 28.4533 31 29C31 29.5467 30.6862 30 30.3077 30Z" fill="#6A7686"/>
</svg>
