<svg width="24" height="24" viewBox="0 0 24 24" fill="none" xmlns="http://www.w3.org/2000/svg">
<path d="M20.3077 6H3.69231C3.31385 6 3 5.54667 3 5C3 4.45333 3.31385 4 3.69231 4H20.3077C20.6862 4 21 4.45333 21 5C21 5.54667 20.6862 6 20.3077 6Z" fill="#6A7686"/>
<path d="M20.3077 13H3.69231C3.31385 13 3 12.5467 3 12C3 11.4533 3.31385 11 3.69231 11H20.3077C20.6862 11 21 11.4533 21 12C21 12.5467 20.6862 13 20.3077 13Z" fill="#6A7686"/>
<path d="M20.3077 20H3.69231C3.31385 20 3 19.5467 3 19C3 18.4533 3.31385 18 3.69231 18H20.3077C20.6862 18 21 18.4533 21 19C21 19.5467 20.6862 20 20.3077 20Z" fill="#6A7686"/>
</svg>
