<svg width="44" height="44" viewBox="0 0 44 44" fill="none" xmlns="http://www.w3.org/2000/svg">
<rect width="44" height="44" rx="12" fill="#165DFF" fill-opacity="0.09"/>
<rect x="0.5" y="0.5" width="43" height="43" rx="11.5" stroke="#165DFF" stroke-opacity="0.09"/>
<path d="M27 12.4297H17C14 12.4297 12 14.4297 12 17.4297V23.4297C12 26.4297 14 28.4297 17 28.4297V30.5597C17 31.3597 17.89 31.8397 18.55 31.3897L23 28.4297H27C30 28.4297 32 26.4297 32 23.4297V17.4297C32 14.4297 30 12.4297 27 12.4297ZM22 24.5997C21.58 24.5997 21.25 24.2597 21.25 23.8497C21.25 23.4397 21.58 23.0997 22 23.0997C22.42 23.0997 22.75 23.4397 22.75 23.8497C22.75 24.2597 22.42 24.5997 22 24.5997ZM23.26 20.4497C22.87 20.7097 22.75 20.8797 22.75 21.1597V21.3697C22.75 21.7797 22.41 22.1197 22 22.1197C21.59 22.1197 21.25 21.7797 21.25 21.3697V21.1597C21.25 19.9997 22.1 19.4297 22.42 19.2097C22.79 18.9597 22.91 18.7897 22.91 18.5297C22.91 18.0297 22.5 17.6197 22 17.6197C21.5 17.6197 21.09 18.0297 21.09 18.5297C21.09 18.9397 20.75 19.2797 20.34 19.2797C19.93 19.2797 19.59 18.9397 19.59 18.5297C19.59 17.1997 20.67 16.1197 22 16.1197C23.33 16.1197 24.41 17.1997 24.41 18.5297C24.41 19.6697 23.57 20.2397 23.26 20.4497Z" fill="#165DFF"/>
</svg>
