<svg width="52" height="52" viewBox="0 0 52 52" fill="none" xmlns="http://www.w3.org/2000/svg">
<path d="M47.6666 16.098V29.098C47.6666 32.348 46.5832 35.0563 44.6766 36.963C42.7916 38.848 40.0833 39.9313 36.8333 39.9313V44.5463C36.8333 46.2797 34.9049 47.3197 33.4749 46.3664L23.8333 39.9313H19.2399C19.4133 39.2813 19.4999 38.6097 19.4999 37.9163C19.4999 35.7063 18.6549 33.6697 17.2683 32.1314C15.7083 30.3547 13.3899 29.2497 10.8333 29.2497C8.40659 29.2497 6.1966 30.2464 4.61493 31.8714C4.41993 31.0047 4.33325 30.073 4.33325 29.098V16.098C4.33325 9.59798 8.66659 5.26465 15.1666 5.26465H36.8333C43.3333 5.26465 47.6666 9.59798 47.6666 16.098Z" stroke="#6A7686" stroke-width="3" stroke-miterlimit="10" stroke-linecap="round" stroke-linejoin="round"/>
<path d="M19.5001 37.9167C19.5001 38.61 19.4134 39.2817 19.2401 39.9317C19.0451 40.7983 18.6984 41.6433 18.2434 42.38C16.7484 44.8933 13.9967 46.5833 10.8334 46.5833C8.60175 46.5833 6.58674 45.7383 5.07007 44.3516C4.42007 43.7883 3.85672 43.1167 3.42339 42.38C2.62172 41.08 2.16675 39.5417 2.16675 37.9167C2.16675 35.5767 3.09843 33.4317 4.61509 31.8717C6.19676 30.2467 8.40675 29.25 10.8334 29.25C13.3901 29.25 15.7084 30.355 17.2684 32.1317C18.6551 33.67 19.5001 35.7067 19.5001 37.9167Z" stroke="#6A7686" stroke-width="3" stroke-miterlimit="10" stroke-linecap="round" stroke-linejoin="round"/>
<path d="M13.1517 40.1703L8.55835 35.5986" stroke="#6A7686" stroke-width="3" stroke-miterlimit="10" stroke-linecap="round" stroke-linejoin="round"/>
<path d="M13.1082 35.6641L8.51489 40.2357" stroke="#6A7686" stroke-width="3" stroke-miterlimit="10" stroke-linecap="round" stroke-linejoin="round"/>
<path d="M18.4167 22.75H33.5834" stroke="#6A7686" stroke-width="3" stroke-miterlimit="10" stroke-linecap="round" stroke-linejoin="round"/>
</svg>
