<svg width="16" height="16" viewBox="0 0 16 16" fill="none" xmlns="http://www.w3.org/2000/svg">
<path d="M12.3133 11.2202L12.5733 13.3268C12.64 13.8802 12.0466 14.2668 11.5733 13.9801L8.77998 12.3202C8.47331 12.3202 8.17332 12.3002 7.87998 12.2602C8.37332 11.6802 8.66665 10.9468 8.66665 10.1535C8.66665 8.26015 7.02665 6.72685 4.99998 6.72685C4.22665 6.72685 3.51332 6.94683 2.91998 7.3335C2.89998 7.16683 2.89331 7.00016 2.89331 6.82682C2.89331 3.79349 5.52665 1.3335 8.77998 1.3335C12.0333 1.3335 14.6666 3.79349 14.6666 6.82682C14.6666 8.62682 13.74 10.2202 12.3133 11.2202Z" stroke="#165DFF" stroke-width="1.5" stroke-linecap="round" stroke-linejoin="round"/>
<path d="M8.66659 10.1532C8.66659 10.9465 8.37326 11.6799 7.87992 12.2599C7.21992 13.0599 6.17325 13.5732 4.99992 13.5732L3.25992 14.6065C2.96658 14.7865 2.59325 14.5399 2.63325 14.1999L2.79992 12.8866C1.90658 12.2666 1.33325 11.2732 1.33325 10.1532C1.33325 8.97986 1.95992 7.94654 2.91992 7.33321C3.51326 6.94654 4.22659 6.72656 4.99992 6.72656C7.02659 6.72656 8.66659 8.25986 8.66659 10.1532Z" stroke="#165DFF" stroke-width="1.5" stroke-linecap="round" stroke-linejoin="round"/>
</svg>
