<svg width="25" height="24" viewBox="0 0 25 24" fill="none" xmlns="http://www.w3.org/2000/svg">
<path d="M9.16666 19H8.66666C4.66666 19 2.66666 18 2.66666 13V8C2.66666 4 4.66666 2 8.66666 2H16.6667C20.6667 2 22.6667 4 22.6667 8V13C22.6667 17 20.6667 19 16.6667 19H16.1667C15.8567 19 15.5567 19.15 15.3667 19.4L13.8667 21.4C13.2067 22.28 12.1267 22.28 11.4667 21.4L9.96666 19.4C9.80666 19.18 9.43666 19 9.16666 19Z" stroke="#6A7686" stroke-width="1.5" stroke-miterlimit="10" stroke-linecap="round" stroke-linejoin="round"/>
<path d="M16.6631 11H16.6721" stroke="#6A7686" stroke-width="1.5" stroke-linecap="round" stroke-linejoin="round"/>
<path d="M12.6621 11H12.6711" stroke="#292D32" stroke-width="2" stroke-linecap="round" stroke-linejoin="round"/>
<path d="M8.66116 11H8.67015" stroke="#292D32" stroke-width="2" stroke-linecap="round" stroke-linejoin="round"/>
</svg>
