<svg width="120" height="120" viewBox="0 0 120 120" fill="none" xmlns="http://www.w3.org/2000/svg">
<mask id="mask0_444_20193" style="mask-type:alpha" maskUnits="userSpaceOnUse" x="0" y="0" width="120" height="120">
<rect width="120" height="120" rx="60" fill="#D9D9D9"/>
</mask>
<g mask="url(#mask0_444_20193)">
<rect width="120" height="120" rx="60" fill="#165DFF" fill-opacity="0.09"/>
<path d="M81.2 28H38.8C25 28 20 33 20 47.05V108.95C20 123 25 128 38.8 128H81.15C95 128 100 123 100 108.95V47.05C100 33 95 28 81.2 28ZM70 49.25H50C47.95 49.25 46.25 47.55 46.25 45.5C46.25 43.45 47.95 41.75 50 41.75H70C72.05 41.75 73.75 43.45 73.75 45.5C73.75 47.55 72.05 49.25 70 49.25Z" fill="#165DFF"/>
<path d="M69.5833 68.8333H50.4166C45.1266 68.8333 40.8333 73.1075 40.8333 78.3783V89.84V91.7567C40.8333 97.0275 45.1266 101.302 50.4166 101.302H53.2916C53.8091 101.302 54.4991 101.647 54.825 102.068L57.7 105.882C58.965 107.569 61.035 107.569 62.3 105.882L65.175 102.068C65.5391 101.589 66.1141 101.302 66.7083 101.302H69.5833C74.8733 101.302 79.1666 97.0275 79.1666 91.7567V78.3783C79.1666 73.1075 74.8733 68.8333 69.5833 68.8333ZM61.9166 91.3542H50.4166C49.6308 91.3542 48.9791 90.7025 48.9791 89.9167C48.9791 89.1308 49.6308 88.4792 50.4166 88.4792H61.9166C62.7025 88.4792 63.3541 89.1308 63.3541 89.9167C63.3541 90.7025 62.7025 91.3542 61.9166 91.3542ZM69.5833 81.7708H50.4166C49.6308 81.7708 48.9791 81.1192 48.9791 80.3333C48.9791 79.5475 49.6308 78.8958 50.4166 78.8958H69.5833C70.3691 78.8958 71.0208 79.5475 71.0208 80.3333C71.0208 81.1192 70.3691 81.7708 69.5833 81.7708Z" fill="#E9F0FF"/>
</g>
</svg>
