<svg width="44" height="44" viewBox="0 0 44 44" fill="none" xmlns="http://www.w3.org/2000/svg">
<rect width="44" height="44" rx="22" fill="white" fill-opacity="0.09"/>
<path d="M22.6778 29.957C22.9525 30.0209 22.9777 30.3807 22.7101 30.4699L21.1301 30.9899C17.1601 32.2699 15.0701 31.1999 13.7801 27.2299L12.5001 23.2799C11.2201 19.3099 12.2801 17.2099 16.2501 15.9299L16.7741 15.7564C17.177 15.623 17.569 16.027 17.4546 16.4357C17.3979 16.6383 17.3434 16.8497 17.2901 17.0699L16.3101 21.2599C15.2101 25.9699 16.8201 28.5699 21.5301 29.6899L22.6778 29.957Z" fill="white"/>
<path d="M27.1699 13.2095L25.4999 12.8195C22.1599 12.0295 20.1699 12.6795 18.9999 15.0995C18.6999 15.7095 18.4599 16.4495 18.2599 17.2995L17.2799 21.4895C16.2999 25.6695 17.5899 27.7295 21.7599 28.7195L23.4399 29.1195C24.0199 29.2595 24.5599 29.3495 25.0599 29.3895C28.1799 29.6895 29.8399 28.2295 30.6799 24.6195L31.6599 20.4395C32.6399 16.2595 31.3599 14.1895 27.1699 13.2095ZM25.2899 23.3295C25.1999 23.6695 24.8999 23.8895 24.5599 23.8895C24.4999 23.8895 24.4399 23.8795 24.3699 23.8695L21.4599 23.1295C21.0599 23.0295 20.8199 22.6195 20.9199 22.2195C21.0199 21.8195 21.4299 21.5795 21.8299 21.6795L24.7399 22.4195C25.1499 22.5195 25.3899 22.9295 25.2899 23.3295ZM28.2199 19.9495C28.1299 20.2895 27.8299 20.5095 27.4899 20.5095C27.4299 20.5095 27.3699 20.4995 27.2999 20.4895L22.4499 19.2595C22.0499 19.1595 21.8099 18.7495 21.9099 18.3495C22.0099 17.9495 22.4199 17.7095 22.8199 17.8095L27.6699 19.0395C28.0799 19.1295 28.3199 19.5395 28.2199 19.9495Z" fill="white"/>
</svg>
