<svg width="17" height="16" viewBox="0 0 17 16" fill="none" xmlns="http://www.w3.org/2000/svg">
<path d="M6.60667 7.24658C6.54001 7.23992 6.46001 7.23992 6.38668 7.24658C4.80001 7.19325 3.54001 5.89325 3.54001 4.29325C3.54001 2.65992 4.86001 1.33325 6.50001 1.33325C8.13334 1.33325 9.46001 2.65992 9.46001 4.29325C9.45334 5.89325 8.19334 7.19325 6.60667 7.24658Z" stroke="#6A7686" stroke-width="1.5" stroke-linecap="round" stroke-linejoin="round"/>
<path d="M11.44 2.66675C12.7333 2.66675 13.7733 3.71341 13.7733 5.00008C13.7733 6.26008 12.7733 7.28675 11.5267 7.33341C11.4733 7.32675 11.4133 7.32675 11.3533 7.33341" stroke="#6A7686" stroke-width="1.5" stroke-linecap="round" stroke-linejoin="round"/>
<path d="M3.27332 9.70675C1.65999 10.7867 1.65999 12.5467 3.27332 13.6201C5.10666 14.8467 8.11332 14.8467 9.94666 13.6201C11.56 12.5401 11.56 10.7801 9.94666 9.70675C8.11999 8.48675 5.11332 8.48675 3.27332 9.70675Z" stroke="#6A7686" stroke-width="1.5" stroke-linecap="round" stroke-linejoin="round"/>
<path d="M12.7267 13.3333C13.2067 13.2333 13.66 13.0399 14.0333 12.7533C15.0733 11.9733 15.0733 10.6866 14.0333 9.90659C13.6667 9.62659 13.22 9.43992 12.7467 9.33325" stroke="#6A7686" stroke-width="1.5" stroke-linecap="round" stroke-linejoin="round"/>
</svg>
