<svg width="44" height="44" viewBox="0 0 44 44" fill="none" xmlns="http://www.w3.org/2000/svg">
<rect width="44" height="44" rx="12" fill="#7F57F1" fill-opacity="0.09"/>
<path d="M19 12C16.38 12 14.25 14.13 14.25 16.75C14.25 19.32 16.26 21.4 18.88 21.49C18.96 21.48 19.04 21.48 19.1 21.49C19.12 21.49 19.13 21.49 19.15 21.49C19.16 21.49 19.16 21.49 19.17 21.49C21.73 21.4 23.74 19.32 23.75 16.75C23.75 14.13 21.62 12 19 12Z" fill="#7F57F1"/>
<path d="M24.08 24.1499C21.29 22.2899 16.74 22.2899 13.93 24.1499C12.66 24.9999 11.96 26.1499 11.96 27.3799C11.96 28.6099 12.66 29.7499 13.92 30.5899C15.32 31.5299 17.16 31.9999 19 31.9999C20.84 31.9999 22.68 31.5299 24.08 30.5899C25.34 29.7399 26.04 28.5999 26.04 27.3599C26.03 26.1299 25.34 24.9899 24.08 24.1499Z" fill="#7F57F1"/>
<path d="M29.99 17.3401C30.15 19.2801 28.77 20.9801 26.86 21.2101C26.85 21.2101 26.85 21.2101 26.84 21.2101H26.81C26.75 21.2101 26.69 21.2101 26.64 21.2301C25.67 21.2801 24.78 20.9701 24.11 20.4001C25.14 19.4801 25.73 18.1001 25.61 16.6001C25.54 15.7901 25.26 15.0501 24.84 14.4201C25.22 14.2301 25.66 14.1101 26.11 14.0701C28.07 13.9001 29.82 15.3601 29.99 17.3401Z" fill="#7F57F1"/>
<path d="M31.99 26.5899C31.91 27.5599 31.29 28.3999 30.25 28.9699C29.25 29.5199 27.99 29.7799 26.74 29.7499C27.46 29.0999 27.88 28.2899 27.96 27.4299C28.06 26.1899 27.47 24.9999 26.29 24.0499C25.62 23.5199 24.84 23.0999 23.99 22.7899C26.2 22.1499 28.98 22.5799 30.69 23.9599C31.61 24.6999 32.08 25.6299 31.99 26.5899Z" fill="#7F57F1"/>
</svg>
