<svg width="44" height="44" viewBox="0 0 44 44" fill="none" xmlns="http://www.w3.org/2000/svg">
<rect width="44" height="44" rx="12" fill="#165DFF"/>
<path d="M28.07 18.51L19.51 14.23C13.76 11.35 11.4 13.71 14.28 19.46L15.15 21.2C15.4 21.71 15.4 22.3 15.15 22.81L14.28 24.54C11.4 30.29 13.75 32.65 19.51 29.77L28.07 25.49C31.91 23.57 31.91 20.43 28.07 18.51ZM24.84 22.75H19.44C19.03 22.75 18.69 22.41 18.69 22C18.69 21.59 19.03 21.25 19.44 21.25H24.84C25.25 21.25 25.59 21.59 25.59 22C25.59 22.41 25.25 22.75 24.84 22.75Z" fill="white"/>
</svg>
