<svg width="24" height="25" viewBox="0 0 24 25" fill="none" xmlns="http://www.w3.org/2000/svg">
<path d="M12.53 20.92H6.21C3.05 20.92 2 18.82 2 16.71V8.28999C2 5.12999 3.05 4.07999 6.21 4.07999H12.53C15.69 4.07999 16.74 5.12999 16.74 8.28999V16.71C16.74 19.87 15.68 20.92 12.53 20.92Z" stroke="#6A7686" stroke-width="1.5" stroke-linecap="round" stroke-linejoin="round"/>
<path d="M19.52 17.6L16.74 15.65V9.34001L19.52 7.39001C20.88 6.44001 22 7.02001 22 8.69001V16.31C22 17.98 20.88 18.56 19.52 17.6Z" stroke="#6A7686" stroke-width="1.5" stroke-linecap="round" stroke-linejoin="round"/>
<path d="M11.5 11.5C12.3284 11.5 13 10.8284 13 10C13 9.17157 12.3284 8.5 11.5 8.5C10.6716 8.5 10 9.17157 10 10C10 10.8284 10.6716 11.5 11.5 11.5Z" stroke="#6A7686" stroke-width="1.5" stroke-linecap="round" stroke-linejoin="round"/>
</svg>
