<svg width="44" height="44" viewBox="0 0 44 44" fill="none" xmlns="http://www.w3.org/2000/svg">
<rect width="44" height="44" rx="12" fill="#30B22D" fill-opacity="0.09"/>
<path d="M32 22.6201V24.6801C32 25.2401 31.54 25.7001 30.97 25.7001H29.04C27.96 25.7001 26.97 24.9101 26.88 23.8301C26.82 23.2001 27.06 22.6101 27.48 22.2001C27.85 21.8201 28.36 21.6001 28.92 21.6001H30.97C31.54 21.6001 32 22.0601 32 22.6201Z" fill="#30B22D"/>
<path d="M25.38 23.9599C25.29 22.9099 25.67 21.8799 26.43 21.1299C27.07 20.4799 27.96 20.0999 28.92 20.0999H29.49C29.77 20.0999 30 19.8699 29.96 19.5899C29.69 17.6499 28.01 16.1499 26 16.1499H16C13.79 16.1499 12 17.9399 12 20.1499V27.1499C12 29.3599 13.79 31.1499 16 31.1499H26C28.02 31.1499 29.69 29.6499 29.96 27.7099C30 27.4299 29.77 27.1999 29.49 27.1999H29.04C27.14 27.1999 25.54 25.7799 25.38 23.9599ZM23 21.8999H17C16.59 21.8999 16.25 21.5699 16.25 21.1499C16.25 20.7299 16.59 20.3999 17 20.3999H23C23.41 20.3999 23.75 20.7399 23.75 21.1499C23.75 21.5599 23.41 21.8999 23 21.8999Z" fill="#30B22D"/>
<path d="M24.21 13.9801C24.47 14.2501 24.24 14.6501 23.86 14.6501H16.03C14.94 14.6501 13.92 14.9701 13.07 15.5201C12.68 15.7701 12.15 15.5001 12.34 15.0701C12.9 13.7601 14.21 12.8501 15.72 12.8501H21.34C22.5 12.8501 23.53 13.2601 24.21 13.9801Z" fill="#30B22D"/>
</svg>
