<svg width="32" height="32" viewBox="0 0 32 32" fill="none" xmlns="http://www.w3.org/2000/svg">
<mask id="mask0_226_10134" style="mask-type:alpha" maskUnits="userSpaceOnUse" x="0" y="0" width="32" height="32">
<rect width="32" height="32" rx="16" fill="#D9D9D9"/>
</mask>
<g mask="url(#mask0_226_10134)">
<rect width="32" height="32" rx="16" fill="#3A724F"/>
<path fill-rule="evenodd" clip-rule="evenodd" d="M16.9092 9.82681L17.9588 8L20.9346 9.72681L19.8853 11.5532C19.701 11.8736 19.9769 12.2632 20.3383 12.1932L22.3492 11.8032L23 15.194L20.9891 15.5836C17.7363 16.214 15.2529 12.71 16.9092 9.82681Z" fill="white"/>
<path fill-rule="evenodd" clip-rule="evenodd" d="M15.0909 22.173L14.0412 23.9998L11.065 22.2734L12.1147 20.4466C12.299 20.1262 12.0231 19.7366 11.6613 19.8066L9.6508 20.1962L9 16.8057L11.0109 16.4161C14.2637 15.7857 16.7467 19.2898 15.0909 22.173Z" fill="white"/>
<path fill-rule="evenodd" clip-rule="evenodd" d="M15.1815 9.82681L14.1323 8L11.1561 9.72681L12.2058 11.5532C12.3896 11.8736 12.1142 12.2632 11.7524 12.1932L9.74147 11.8032L9.09146 15.194L11.102 15.5836C14.3552 16.214 16.8386 12.71 15.1819 9.82681H15.1815Z" fill="white"/>
<path fill-rule="evenodd" clip-rule="evenodd" d="M16.8216 22.173L17.8704 23.9998L20.8466 22.2734L19.797 20.4466C19.6131 20.1262 19.8885 19.7366 20.2503 19.8066L22.2608 20.1962L22.9116 16.8057L20.9007 16.4161C17.6479 15.7857 15.1649 19.2898 16.8208 22.173H16.8216Z" fill="white"/>
</g>
</svg>
