<svg width="64" height="64" viewBox="0 0 64 64" fill="none" xmlns="http://www.w3.org/2000/svg">
<mask id="mask0_2011_11157" style="mask-type:alpha" maskUnits="userSpaceOnUse" x="0" y="0" width="64" height="64">
<rect width="64" height="64" rx="32" fill="#D9D9D9"/>
</mask>
<g mask="url(#mask0_2011_11157)">
<rect width="64" height="64" rx="32" fill="#ED6B60"/>
<path d="M40.4581 30.0439C40.0026 30.5014 39.6538 31.0537 39.4365 31.6612C39.2192 32.2687 39.1387 32.9166 39.2009 33.5588L39.1793 33.5372C39.2432 34.2931 39.141 35.0536 38.8801 35.7661C38.6191 36.4784 38.2057 37.1254 37.6685 37.6618C37.1313 38.1981 36.4833 38.611 35.7697 38.8714C35.0562 39.132 34.2943 39.234 33.5373 39.1701L33.559 39.1917C32.6534 39.1076 31.7439 39.3043 30.9544 39.7551C30.1649 40.206 29.5339 40.8889 29.1475 41.7109C28.7611 42.533 28.6379 43.4539 28.7949 44.3484C28.9519 45.2428 29.3814 46.0671 30.0248 46.7088C30.6682 47.3506 31.4942 47.7787 32.3901 47.9345C33.2861 48.0906 34.2084 47.9667 35.0314 47.5802C35.8543 47.1935 36.5377 46.563 36.9886 45.7744C37.4394 44.9857 37.6357 44.0775 37.5506 43.1734L37.5735 43.195C37.5095 42.4392 37.6116 41.6785 37.8725 40.9661C38.1334 40.2537 38.547 39.6068 39.0842 39.0704C39.6214 38.5341 40.2694 38.1212 40.9829 37.8608C41.6965 37.6002 42.4583 37.4982 43.2154 37.5621L43.1925 37.5405C43.9322 37.6068 44.6768 37.4858 45.3572 37.1884C46.0375 36.891 46.6318 36.427 47.0846 35.8393C47.5375 35.2517 47.8347 34.5592 47.9481 33.8265C48.0617 33.0936 47.9881 32.3441 47.7343 31.6471C47.4804 30.9503 47.0545 30.3286 46.4959 29.8399C45.9374 29.3511 45.2643 29.011 44.5391 28.8512C43.8138 28.6913 43.0598 28.7168 42.3471 28.9252C41.6343 29.1338 40.9859 29.5185 40.4617 30.0439H40.4581Z" fill="white"/>
<path d="M31.5913 36.3624L31.5685 36.3408C32.2119 36.4055 32.8617 36.3267 33.4709 36.1099C34.0801 35.8932 34.6335 35.5441 35.0909 35.0878C35.5482 34.6314 35.8985 34.0791 36.1159 33.4711C36.3335 32.863 36.4129 32.2144 36.3486 31.5719L36.3715 31.5935C36.3075 30.8376 36.4097 30.077 36.6705 29.3646C36.9314 28.6522 37.345 28.0053 37.8822 27.4689C38.4194 26.9326 39.0674 26.5197 39.7809 26.2592C40.4945 25.9987 41.2563 25.8968 42.0134 25.9606L41.9905 25.939C42.8962 26.0239 43.8059 25.8278 44.5958 25.3775C45.3859 24.9271 46.0174 24.2445 46.4044 23.4226C46.7914 22.6008 46.9151 21.6797 46.7586 20.7851C46.6021 19.8904 46.173 19.0658 45.5298 18.4236C44.8866 17.7814 44.0606 17.353 43.1646 17.1967C42.2685 17.0404 41.346 17.1639 40.5228 17.5504C39.6996 17.9368 39.016 18.5673 38.5649 19.356C38.1138 20.1447 37.9174 21.0531 38.0025 21.9573L37.9809 21.9345C38.0449 22.6903 37.943 23.4511 37.6822 24.1636C37.4214 24.8761 37.0078 25.5231 36.4706 26.0596C35.9334 26.5959 35.2853 27.0088 34.5717 27.2692C33.858 27.5296 33.0961 27.6314 32.339 27.5674L32.3606 27.5902C31.7172 27.5255 31.0673 27.6044 30.4582 27.8211C29.849 28.0377 29.2956 28.3869 28.8382 28.8433C28.3807 29.2996 28.0306 29.8519 27.813 30.46C27.5956 31.068 27.5162 31.7166 27.5805 32.3591L27.5588 32.3375C27.6225 33.0933 27.5203 33.8539 27.2593 34.5662C26.9983 35.2784 26.5848 35.9254 26.0476 36.4617C25.5104 36.998 24.8626 37.4108 24.1491 37.6714C23.4357 37.932 22.6739 38.0341 21.9169 37.9705L21.9386 37.9921C21.0329 37.9071 20.1231 38.1032 19.3332 38.5536C18.5433 39.0039 17.9117 39.6865 17.5247 40.5084C17.1376 41.3303 17.0139 42.2513 17.1704 43.146C17.327 44.0406 17.7561 44.8653 18.3993 45.5074C19.0425 46.1497 19.8685 46.5781 20.7645 46.7343C21.6606 46.8906 22.5831 46.7671 23.4063 46.3807C24.2294 45.9943 24.9132 45.3638 25.3642 44.5751C25.8153 43.7863 26.0117 42.878 25.9266 41.9738L25.9494 41.9954C25.8855 41.2395 25.9877 40.4789 26.2486 39.7664C26.5094 39.0541 26.923 38.4072 27.4602 37.8708C27.9974 37.3345 28.6454 36.9215 29.3589 36.6611C30.0725 36.4006 30.8342 36.2986 31.5913 36.3624Z" fill="white"/>
<path d="M23.536 33.9536C23.9916 33.4962 24.3404 32.9439 24.5575 32.3364C24.7746 31.7288 24.8547 31.0808 24.7921 30.4387L24.8149 30.4603C24.7509 29.7043 24.8531 28.9434 25.1141 28.2308C25.3752 27.5182 25.789 26.8712 26.3265 26.3348C26.864 25.7984 27.5122 25.3856 28.226 25.1252C28.9398 24.8649 29.702 24.7632 30.4592 24.8274L30.4364 24.8058C31.3417 24.8905 32.2512 24.6943 33.0407 24.244C33.8303 23.7937 34.4614 23.1112 34.8483 22.2896C35.2351 21.468 35.3587 20.5473 35.2022 19.653C35.0457 18.7587 34.6166 17.9343 33.9737 17.2924C33.3308 16.6505 32.505 16.2221 31.6093 16.0659C30.7137 15.9096 29.7914 16.033 28.9686 16.4192C28.1456 16.8054 27.4621 17.4356 27.0111 18.2239C26.56 19.0122 26.3635 19.9202 26.4483 20.8241L26.4267 20.8025C26.4906 21.5583 26.3885 22.319 26.1275 23.0314C25.8666 23.7438 25.4532 24.3907 24.9159 24.9271C24.3787 25.4635 23.7307 25.8763 23.0172 26.1368C22.3037 26.3973 21.5418 26.4993 20.7848 26.4354L20.8064 26.457C20.0667 26.3908 19.3222 26.5121 18.642 26.8096C17.9617 27.1071 17.3676 27.5713 16.9148 28.159C16.4621 28.7467 16.1652 29.4391 16.0518 30.1719C15.9383 30.9047 16.012 31.6543 16.2659 32.351C16.5199 33.0479 16.9459 33.6694 17.5045 34.158C18.063 34.6468 18.7361 34.9867 19.4613 35.1466C20.1866 35.3063 20.9405 35.2808 21.6532 35.0723C22.3659 34.8637 23.0143 34.479 23.5384 33.9536H23.536Z" fill="white"/>
</g>
</svg>
