<svg width="64" height="64" viewBox="0 0 64 64" fill="none" xmlns="http://www.w3.org/2000/svg">
<mask id="mask0_2011_11190" style="mask-type:alpha" maskUnits="userSpaceOnUse" x="0" y="0" width="64" height="64">
<rect width="64" height="64" rx="32" fill="#D9D9D9"/>
</mask>
<g mask="url(#mask0_2011_11190)">
<rect width="64" height="64" rx="32" fill="#23216E"/>
<path d="M32 12C20.9543 12 12 20.9543 12 32C23.0457 32 32 23.0457 32 12Z" fill="white"/>
<path d="M32 52C43.0457 52 52 43.0457 52 32C40.9543 32 32 40.9543 32 52Z" fill="white"/>
<path d="M32 12C43.0457 12 52 20.9543 52 32C40.9543 32 32 23.0457 32 12Z" fill="white"/>
<path d="M32 52C20.9543 52 12 43.0457 12 32C23.0457 32 32 40.9543 32 52Z" fill="white"/>
</g>
</svg>
