<svg width="100" height="100" viewBox="0 0 100 100" fill="none" xmlns="http://www.w3.org/2000/svg">
<mask id="mask0_419_14342" style="mask-type:alpha" maskUnits="userSpaceOnUse" x="0" y="0" width="100" height="100">
<rect width="100" height="100" rx="50" fill="#D9D9D9"/>
</mask>
<g mask="url(#mask0_419_14342)">
<rect width="100" height="100" fill="#335EF7" fill-opacity="0.09"/>
<path d="M67.535 58.4355L62.0575 45.6255C61.06 43.2805 59.5725 41.9505 57.875 41.863C56.195 41.7755 54.5675 42.948 53.325 45.188L50 51.1555C49.3 52.4155 48.3025 53.168 47.2175 53.2555C46.115 53.3605 45.0125 52.783 44.12 51.6455L43.735 51.1555C42.4925 49.598 40.9525 48.8455 39.3775 49.003C37.8025 49.1605 36.455 50.2455 35.5625 52.013L32.535 58.0505C31.45 60.238 31.555 62.7755 32.8325 64.8405C34.11 66.9055 36.3325 68.148 38.765 68.148H61.095C63.44 68.148 65.6275 66.9755 66.9225 65.0155C68.2525 63.0555 68.4625 60.588 67.535 58.4355Z" fill="#165DFF"/>
<path d="M41.1975 43.665C44.4642 43.665 47.1125 41.0167 47.1125 37.75C47.1125 34.4832 44.4642 31.835 41.1975 31.835C37.9307 31.835 35.2825 34.4832 35.2825 37.75C35.2825 41.0167 37.9307 43.665 41.1975 43.665Z" fill="#165DFF"/>
</g>
</svg>
