<svg width="178" height="38" viewBox="0 0 178 38" fill="none" xmlns="http://www.w3.org/2000/svg">
<path d="M13.9288 3.76428C14.2968 3.19206 14.9305 2.84619 15.6109 2.84619H29.4068C30.9893 2.84619 31.9449 4.5971 31.0889 5.9281L20.0223 23.1339C19.6543 23.7061 19.0206 24.0519 18.3402 24.0519H4.54435C2.96181 24.0519 2.00617 22.301 2.86225 20.97L13.9288 3.76428Z" fill="#165DFF"/>
<path d="M16.4234 26.0171C15.743 26.0171 15.1093 26.363 14.7413 26.9352L12.0312 31.1488C11.1751 32.4798 12.1307 34.2307 13.7133 34.2307H28.3892C29.0695 34.2307 29.7032 33.8848 30.0713 33.3126L41.1378 16.1068C41.9939 14.7758 41.0382 13.0249 39.4557 13.0249H29.8698C29.1894 13.0249 28.5557 13.3708 28.1877 13.943L21.0122 25.099C20.6441 25.6712 20.0105 26.0171 19.3301 26.0171H16.4234Z" fill="#30A9EE"/>
<path d="M71.66 30V9H76.76V30H71.66ZM58.64 30V9H63.74V30H58.64ZM60.62 21.81L60.65 17.25H74.36V21.81H60.62ZM89.0989 30.3C87.3389 30.3 85.8089 29.95 84.5089 29.25C83.2089 28.53 82.1989 27.56 81.4789 26.34C80.7589 25.1 80.3989 23.69 80.3989 22.11C80.3989 20.89 80.5989 19.77 80.9989 18.75C81.3989 17.73 81.9589 16.85 82.6789 16.11C83.3989 15.35 84.2489 14.77 85.2289 14.37C86.2289 13.95 87.3189 13.74 88.4989 13.74C89.6189 13.74 90.6389 13.94 91.5589 14.34C92.4989 14.74 93.3089 15.3 93.9889 16.02C94.6689 16.74 95.1889 17.59 95.5489 18.57C95.9089 19.55 96.0689 20.62 96.0289 21.78L95.9989 23.07H83.3089L82.6189 20.37H92.0989L91.5889 20.94V20.34C91.5489 19.84 91.3889 19.4 91.1089 19.02C90.8489 18.62 90.4989 18.31 90.0589 18.09C89.6189 17.87 89.1189 17.76 88.5589 17.76C87.7789 17.76 87.1089 17.92 86.5489 18.24C86.0089 18.54 85.5989 18.99 85.3189 19.59C85.0389 20.17 84.8989 20.89 84.8989 21.75C84.8989 22.63 85.0789 23.4 85.4389 24.06C85.8189 24.7 86.3589 25.2 87.0589 25.56C87.7789 25.92 88.6289 26.1 89.6089 26.1C90.2889 26.1 90.8889 26 91.4089 25.8C91.9489 25.6 92.5289 25.26 93.1489 24.78L95.3989 27.96C94.7789 28.5 94.1189 28.94 93.4189 29.28C92.7189 29.62 91.9989 29.87 91.2589 30.03C90.5389 30.21 89.8189 30.3 89.0989 30.3ZM100.804 36.9L104.434 28.35L104.494 30.81L96.8141 14.07H102.244L105.604 22.08C105.784 22.48 105.954 22.91 106.114 23.37C106.274 23.83 106.394 24.27 106.474 24.69L105.814 25.08C105.934 24.78 106.064 24.41 106.204 23.97C106.364 23.51 106.534 23.02 106.714 22.5L109.654 14.07H115.114L108.334 30L105.574 36.9H100.804ZM130.928 30V9H136.028V30H130.928ZM117.908 30V9H123.008V30H117.908ZM119.888 21.81L119.918 17.25H133.628V21.81H119.888ZM146.656 30.27C145.316 30.27 144.116 29.92 143.056 29.22C142.016 28.5 141.186 27.52 140.566 26.28C139.946 25.02 139.636 23.6 139.636 22.02C139.636 20.4 139.946 18.97 140.566 17.73C141.186 16.49 142.036 15.52 143.116 14.82C144.196 14.1 145.426 13.74 146.806 13.74C147.566 13.74 148.256 13.85 148.876 14.07C149.516 14.29 150.076 14.6 150.556 15C151.036 15.38 151.446 15.83 151.786 16.35C152.126 16.85 152.376 17.39 152.536 17.97L151.546 17.85V14.07H156.316V30H151.456V26.16L152.536 26.13C152.376 26.69 152.116 27.22 151.756 27.72C151.396 28.22 150.956 28.66 150.436 29.04C149.916 29.42 149.336 29.72 148.696 29.94C148.056 30.16 147.376 30.27 146.656 30.27ZM147.976 26.22C148.716 26.22 149.356 26.05 149.896 25.71C150.436 25.37 150.856 24.89 151.156 24.27C151.456 23.63 151.606 22.88 151.606 22.02C151.606 21.16 151.456 20.42 151.156 19.8C150.856 19.16 150.436 18.67 149.896 18.33C149.356 17.97 148.716 17.79 147.976 17.79C147.256 17.79 146.626 17.97 146.086 18.33C145.566 18.67 145.156 19.16 144.856 19.8C144.556 20.42 144.406 21.16 144.406 22.02C144.406 22.88 144.556 23.63 144.856 24.27C145.156 24.89 145.566 25.37 146.086 25.71C146.626 26.05 147.256 26.22 147.976 26.22ZM168.052 30.3C166.392 30.3 164.912 29.94 163.612 29.22C162.332 28.5 161.312 27.52 160.552 26.28C159.812 25.04 159.442 23.62 159.442 22.02C159.442 20.42 159.812 19 160.552 17.76C161.312 16.52 162.332 15.54 163.612 14.82C164.912 14.1 166.392 13.74 168.052 13.74C169.712 13.74 171.182 14.1 172.462 14.82C173.762 15.54 174.782 16.52 175.522 17.76C176.262 19 176.632 20.42 176.632 22.02C176.632 23.62 176.262 25.04 175.522 26.28C174.782 27.52 173.762 28.5 172.462 29.22C171.182 29.94 169.712 30.3 168.052 30.3ZM168.052 26.16C168.772 26.16 169.412 25.98 169.972 25.62C170.532 25.26 170.972 24.77 171.292 24.15C171.612 23.53 171.762 22.82 171.742 22.02C171.762 21.22 171.612 20.51 171.292 19.89C170.972 19.25 170.532 18.75 169.972 18.39C169.412 18.03 168.772 17.85 168.052 17.85C167.332 17.85 166.682 18.03 166.102 18.39C165.542 18.75 165.102 19.25 164.782 19.89C164.462 20.51 164.312 21.22 164.332 22.02C164.312 22.82 164.462 23.53 164.782 24.15C165.102 24.77 165.542 25.26 166.102 25.62C166.682 25.98 167.332 26.16 168.052 26.16Z" fill="#080C1A"/>
</svg>
