<svg width="320" height="512" viewBox="0 0 320 512" fill="none" xmlns="http://www.w3.org/2000/svg">
<circle cx="25" cy="25" r="25" fill="#EFF2F7"/>
<rect x="66" y="9" width="254" height="32" rx="16" fill="#EFF2F7"/>
<circle cx="25" cy="95" r="25" fill="#EFF2F7"/>
<rect x="66" y="79" width="254" height="32" rx="16" fill="#EFF2F7"/>
<circle cx="25" cy="165" r="25" fill="#EFF2F7"/>
<rect x="66" y="149" width="254" height="32" rx="16" fill="#EFF2F7"/>
<circle cx="25" cy="235" r="25" fill="#EFF2F7"/>
<rect x="66" y="219" width="254" height="32" rx="16" fill="#EFF2F7"/>
<circle cx="25" cy="305" r="25" fill="#EFF2F7"/>
<rect x="66" y="289" width="254" height="32" rx="16" fill="#EFF2F7"/>
<circle cx="25" cy="375" r="25" fill="#EFF2F7"/>
<rect x="66" y="359" width="254" height="32" rx="16" fill="#EFF2F7"/>
<circle cx="25" cy="445" r="25" fill="#EFF2F7"/>
<rect x="66" y="429" width="254" height="32" rx="16" fill="#EFF2F7"/>
<circle cx="25" cy="515" r="25" fill="#EFF2F7"/>
<rect x="66" y="499" width="254" height="32" rx="16" fill="#EFF2F7"/>
</svg>
