<svg width="820" height="652" viewBox="0 0 820 652" fill="none" xmlns="http://www.w3.org/2000/svg">
<circle cx="2" cy="2" r="2" fill="#E3E4E8"/>
<circle cx="36" cy="2" r="2" fill="#E3E4E8"/>
<circle cx="70" cy="2" r="2" fill="#E3E4E8"/>
<circle cx="104" cy="2" r="2" fill="#E3E4E8"/>
<circle cx="138" cy="2" r="2" fill="#E3E4E8"/>
<circle cx="172" cy="2" r="2" fill="#E3E4E8"/>
<circle cx="206" cy="2" r="2" fill="#E3E4E8"/>
<circle cx="240" cy="2" r="2" fill="#E3E4E8"/>
<circle cx="274" cy="2" r="2" fill="#E3E4E8"/>
<circle cx="308" cy="2" r="2" fill="#E3E4E8"/>
<circle cx="342" cy="2" r="2" fill="#E3E4E8"/>
<circle cx="376" cy="2" r="2" fill="#E3E4E8"/>
<circle cx="410" cy="2" r="2" fill="#E3E4E8"/>
<circle cx="444" cy="2" r="2" fill="#E3E4E8"/>
<circle cx="478" cy="2" r="2" fill="#E3E4E8"/>
<circle cx="512" cy="2" r="2" fill="#E3E4E8"/>
<circle cx="546" cy="2" r="2" fill="#E3E4E8"/>
<circle cx="580" cy="2" r="2" fill="#E3E4E8"/>
<circle cx="614" cy="2" r="2" fill="#E3E4E8"/>
<circle cx="648" cy="2" r="2" fill="#E3E4E8"/>
<circle cx="682" cy="2" r="2" fill="#E3E4E8"/>
<circle cx="716" cy="2" r="2" fill="#E3E4E8"/>
<circle cx="750" cy="2" r="2" fill="#E3E4E8"/>
<circle cx="784" cy="2" r="2" fill="#E3E4E8"/>
<circle cx="818" cy="2" r="2" fill="#E3E4E8"/>
<circle cx="2" cy="56" r="2" fill="#E3E4E8"/>
<circle cx="36" cy="56" r="2" fill="#E3E4E8"/>
<circle cx="70" cy="56" r="2" fill="#E3E4E8"/>
<circle cx="104" cy="56" r="2" fill="#E3E4E8"/>
<circle cx="138" cy="56" r="2" fill="#E3E4E8"/>
<circle cx="172" cy="56" r="2" fill="#E3E4E8"/>
<circle cx="206" cy="56" r="2" fill="#E3E4E8"/>
<circle cx="240" cy="56" r="2" fill="#E3E4E8"/>
<circle cx="274" cy="56" r="2" fill="#E3E4E8"/>
<circle cx="308" cy="56" r="2" fill="#E3E4E8"/>
<circle cx="342" cy="56" r="2" fill="#E3E4E8"/>
<circle cx="376" cy="56" r="2" fill="#E3E4E8"/>
<circle cx="410" cy="56" r="2" fill="#E3E4E8"/>
<circle cx="444" cy="56" r="2" fill="#E3E4E8"/>
<circle cx="478" cy="56" r="2" fill="#E3E4E8"/>
<circle cx="512" cy="56" r="2" fill="#E3E4E8"/>
<circle cx="546" cy="56" r="2" fill="#E3E4E8"/>
<circle cx="580" cy="56" r="2" fill="#E3E4E8"/>
<circle cx="614" cy="56" r="2" fill="#E3E4E8"/>
<circle cx="648" cy="56" r="2" fill="#E3E4E8"/>
<circle cx="682" cy="56" r="2" fill="#E3E4E8"/>
<circle cx="716" cy="56" r="2" fill="#E3E4E8"/>
<circle cx="750" cy="56" r="2" fill="#E3E4E8"/>
<circle cx="784" cy="56" r="2" fill="#E3E4E8"/>
<circle cx="818" cy="56" r="2" fill="#E3E4E8"/>
<circle cx="2" cy="110" r="2" fill="#E3E4E8"/>
<circle cx="36" cy="110" r="2" fill="#E3E4E8"/>
<circle cx="70" cy="110" r="2" fill="#E3E4E8"/>
<circle cx="104" cy="110" r="2" fill="#E3E4E8"/>
<circle cx="138" cy="110" r="2" fill="#E3E4E8"/>
<circle cx="172" cy="110" r="2" fill="#E3E4E8"/>
<circle cx="206" cy="110" r="2" fill="#E3E4E8"/>
<circle cx="240" cy="110" r="2" fill="#E3E4E8"/>
<circle cx="274" cy="110" r="2" fill="#E3E4E8"/>
<circle cx="308" cy="110" r="2" fill="#E3E4E8"/>
<circle cx="342" cy="110" r="2" fill="#E3E4E8"/>
<circle cx="376" cy="110" r="2" fill="#E3E4E8"/>
<circle cx="410" cy="110" r="2" fill="#E3E4E8"/>
<circle cx="444" cy="110" r="2" fill="#E3E4E8"/>
<circle cx="478" cy="110" r="2" fill="#E3E4E8"/>
<circle cx="512" cy="110" r="2" fill="#E3E4E8"/>
<circle cx="546" cy="110" r="2" fill="#E3E4E8"/>
<circle cx="580" cy="110" r="2" fill="#E3E4E8"/>
<circle cx="614" cy="110" r="2" fill="#E3E4E8"/>
<circle cx="648" cy="110" r="2" fill="#E3E4E8"/>
<circle cx="682" cy="110" r="2" fill="#E3E4E8"/>
<circle cx="716" cy="110" r="2" fill="#E3E4E8"/>
<circle cx="750" cy="110" r="2" fill="#E3E4E8"/>
<circle cx="784" cy="110" r="2" fill="#E3E4E8"/>
<circle cx="818" cy="110" r="2" fill="#E3E4E8"/>
<circle cx="2" cy="164" r="2" fill="#E3E4E8"/>
<circle cx="36" cy="164" r="2" fill="#E3E4E8"/>
<circle cx="70" cy="164" r="2" fill="#E3E4E8"/>
<circle cx="104" cy="164" r="2" fill="#E3E4E8"/>
<circle cx="138" cy="164" r="2" fill="#E3E4E8"/>
<circle cx="172" cy="164" r="2" fill="#E3E4E8"/>
<circle cx="206" cy="164" r="2" fill="#E3E4E8"/>
<circle cx="240" cy="164" r="2" fill="#E3E4E8"/>
<circle cx="274" cy="164" r="2" fill="#E3E4E8"/>
<circle cx="308" cy="164" r="2" fill="#E3E4E8"/>
<circle cx="342" cy="164" r="2" fill="#E3E4E8"/>
<circle cx="376" cy="164" r="2" fill="#E3E4E8"/>
<circle cx="410" cy="164" r="2" fill="#E3E4E8"/>
<circle cx="444" cy="164" r="2" fill="#E3E4E8"/>
<circle cx="478" cy="164" r="2" fill="#E3E4E8"/>
<circle cx="512" cy="164" r="2" fill="#E3E4E8"/>
<circle cx="546" cy="164" r="2" fill="#E3E4E8"/>
<circle cx="580" cy="164" r="2" fill="#E3E4E8"/>
<circle cx="614" cy="164" r="2" fill="#E3E4E8"/>
<circle cx="648" cy="164" r="2" fill="#E3E4E8"/>
<circle cx="682" cy="164" r="2" fill="#E3E4E8"/>
<circle cx="716" cy="164" r="2" fill="#E3E4E8"/>
<circle cx="750" cy="164" r="2" fill="#E3E4E8"/>
<circle cx="784" cy="164" r="2" fill="#E3E4E8"/>
<circle cx="818" cy="164" r="2" fill="#E3E4E8"/>
<circle cx="2" cy="218" r="2" fill="#E3E4E8"/>
<circle cx="36" cy="218" r="2" fill="#E3E4E8"/>
<circle cx="70" cy="218" r="2" fill="#E3E4E8"/>
<circle cx="104" cy="218" r="2" fill="#E3E4E8"/>
<circle cx="138" cy="218" r="2" fill="#E3E4E8"/>
<circle cx="172" cy="218" r="2" fill="#E3E4E8"/>
<circle cx="206" cy="218" r="2" fill="#E3E4E8"/>
<circle cx="240" cy="218" r="2" fill="#E3E4E8"/>
<circle cx="274" cy="218" r="2" fill="#E3E4E8"/>
<circle cx="308" cy="218" r="2" fill="#E3E4E8"/>
<circle cx="342" cy="218" r="2" fill="#E3E4E8"/>
<circle cx="376" cy="218" r="2" fill="#E3E4E8"/>
<circle cx="410" cy="218" r="2" fill="#E3E4E8"/>
<circle cx="444" cy="218" r="2" fill="#E3E4E8"/>
<circle cx="478" cy="218" r="2" fill="#E3E4E8"/>
<circle cx="512" cy="218" r="2" fill="#E3E4E8"/>
<circle cx="546" cy="218" r="2" fill="#E3E4E8"/>
<circle cx="580" cy="218" r="2" fill="#E3E4E8"/>
<circle cx="614" cy="218" r="2" fill="#E3E4E8"/>
<circle cx="648" cy="218" r="2" fill="#E3E4E8"/>
<circle cx="682" cy="218" r="2" fill="#E3E4E8"/>
<circle cx="716" cy="218" r="2" fill="#E3E4E8"/>
<circle cx="750" cy="218" r="2" fill="#E3E4E8"/>
<circle cx="784" cy="218" r="2" fill="#E3E4E8"/>
<circle cx="818" cy="218" r="2" fill="#E3E4E8"/>
<circle cx="2" cy="272" r="2" fill="#E3E4E8"/>
<circle cx="36" cy="272" r="2" fill="#E3E4E8"/>
<circle cx="70" cy="272" r="2" fill="#E3E4E8"/>
<circle cx="104" cy="272" r="2" fill="#E3E4E8"/>
<circle cx="138" cy="272" r="2" fill="#E3E4E8"/>
<circle cx="172" cy="272" r="2" fill="#E3E4E8"/>
<circle cx="206" cy="272" r="2" fill="#E3E4E8"/>
<circle cx="240" cy="272" r="2" fill="#E3E4E8"/>
<circle cx="274" cy="272" r="2" fill="#E3E4E8"/>
<circle cx="308" cy="272" r="2" fill="#E3E4E8"/>
<circle cx="342" cy="272" r="2" fill="#E3E4E8"/>
<circle cx="376" cy="272" r="2" fill="#E3E4E8"/>
<circle cx="410" cy="272" r="2" fill="#E3E4E8"/>
<circle cx="444" cy="272" r="2" fill="#E3E4E8"/>
<circle cx="478" cy="272" r="2" fill="#E3E4E8"/>
<circle cx="512" cy="272" r="2" fill="#E3E4E8"/>
<circle cx="546" cy="272" r="2" fill="#E3E4E8"/>
<circle cx="580" cy="272" r="2" fill="#E3E4E8"/>
<circle cx="614" cy="272" r="2" fill="#E3E4E8"/>
<circle cx="648" cy="272" r="2" fill="#E3E4E8"/>
<circle cx="682" cy="272" r="2" fill="#E3E4E8"/>
<circle cx="716" cy="272" r="2" fill="#E3E4E8"/>
<circle cx="750" cy="272" r="2" fill="#E3E4E8"/>
<circle cx="784" cy="272" r="2" fill="#E3E4E8"/>
<circle cx="818" cy="272" r="2" fill="#E3E4E8"/>
<circle cx="2" cy="326" r="2" fill="#E3E4E8"/>
<circle cx="36" cy="326" r="2" fill="#E3E4E8"/>
<circle cx="70" cy="326" r="2" fill="#E3E4E8"/>
<circle cx="104" cy="326" r="2" fill="#E3E4E8"/>
<circle cx="138" cy="326" r="2" fill="#E3E4E8"/>
<circle cx="172" cy="326" r="2" fill="#E3E4E8"/>
<circle cx="206" cy="326" r="2" fill="#E3E4E8"/>
<circle cx="240" cy="326" r="2" fill="#E3E4E8"/>
<circle cx="274" cy="326" r="2" fill="#E3E4E8"/>
<circle cx="308" cy="326" r="2" fill="#E3E4E8"/>
<circle cx="342" cy="326" r="2" fill="#E3E4E8"/>
<circle cx="376" cy="326" r="2" fill="#E3E4E8"/>
<circle cx="410" cy="326" r="2" fill="#E3E4E8"/>
<circle cx="444" cy="326" r="2" fill="#E3E4E8"/>
<circle cx="478" cy="326" r="2" fill="#E3E4E8"/>
<circle cx="512" cy="326" r="2" fill="#E3E4E8"/>
<circle cx="546" cy="326" r="2" fill="#E3E4E8"/>
<circle cx="580" cy="326" r="2" fill="#E3E4E8"/>
<circle cx="614" cy="326" r="2" fill="#E3E4E8"/>
<circle cx="648" cy="326" r="2" fill="#E3E4E8"/>
<circle cx="682" cy="326" r="2" fill="#E3E4E8"/>
<circle cx="716" cy="326" r="2" fill="#E3E4E8"/>
<circle cx="750" cy="326" r="2" fill="#E3E4E8"/>
<circle cx="784" cy="326" r="2" fill="#E3E4E8"/>
<circle cx="818" cy="326" r="2" fill="#E3E4E8"/>
<circle cx="2" cy="380" r="2" fill="#E3E4E8"/>
<circle cx="36" cy="380" r="2" fill="#E3E4E8"/>
<circle cx="70" cy="380" r="2" fill="#E3E4E8"/>
<circle cx="104" cy="380" r="2" fill="#E3E4E8"/>
<circle cx="138" cy="380" r="2" fill="#E3E4E8"/>
<circle cx="172" cy="380" r="2" fill="#E3E4E8"/>
<circle cx="206" cy="380" r="2" fill="#E3E4E8"/>
<circle cx="240" cy="380" r="2" fill="#E3E4E8"/>
<circle cx="274" cy="380" r="2" fill="#E3E4E8"/>
<circle cx="308" cy="380" r="2" fill="#E3E4E8"/>
<circle cx="342" cy="380" r="2" fill="#E3E4E8"/>
<circle cx="376" cy="380" r="2" fill="#E3E4E8"/>
<circle cx="410" cy="380" r="2" fill="#E3E4E8"/>
<circle cx="444" cy="380" r="2" fill="#E3E4E8"/>
<circle cx="478" cy="380" r="2" fill="#E3E4E8"/>
<circle cx="512" cy="380" r="2" fill="#E3E4E8"/>
<circle cx="546" cy="380" r="2" fill="#E3E4E8"/>
<circle cx="580" cy="380" r="2" fill="#E3E4E8"/>
<circle cx="614" cy="380" r="2" fill="#E3E4E8"/>
<circle cx="648" cy="380" r="2" fill="#E3E4E8"/>
<circle cx="682" cy="380" r="2" fill="#E3E4E8"/>
<circle cx="716" cy="380" r="2" fill="#E3E4E8"/>
<circle cx="750" cy="380" r="2" fill="#E3E4E8"/>
<circle cx="784" cy="380" r="2" fill="#E3E4E8"/>
<circle cx="818" cy="380" r="2" fill="#E3E4E8"/>
<circle cx="2" cy="434" r="2" fill="#E3E4E8"/>
<circle cx="36" cy="434" r="2" fill="#E3E4E8"/>
<circle cx="70" cy="434" r="2" fill="#E3E4E8"/>
<circle cx="104" cy="434" r="2" fill="#E3E4E8"/>
<circle cx="138" cy="434" r="2" fill="#E3E4E8"/>
<circle cx="172" cy="434" r="2" fill="#E3E4E8"/>
<circle cx="206" cy="434" r="2" fill="#E3E4E8"/>
<circle cx="240" cy="434" r="2" fill="#E3E4E8"/>
<circle cx="274" cy="434" r="2" fill="#E3E4E8"/>
<circle cx="308" cy="434" r="2" fill="#E3E4E8"/>
<circle cx="342" cy="434" r="2" fill="#E3E4E8"/>
<circle cx="376" cy="434" r="2" fill="#E3E4E8"/>
<circle cx="410" cy="434" r="2" fill="#E3E4E8"/>
<circle cx="444" cy="434" r="2" fill="#E3E4E8"/>
<circle cx="478" cy="434" r="2" fill="#E3E4E8"/>
<circle cx="512" cy="434" r="2" fill="#E3E4E8"/>
<circle cx="546" cy="434" r="2" fill="#E3E4E8"/>
<circle cx="580" cy="434" r="2" fill="#E3E4E8"/>
<circle cx="614" cy="434" r="2" fill="#E3E4E8"/>
<circle cx="648" cy="434" r="2" fill="#E3E4E8"/>
<circle cx="682" cy="434" r="2" fill="#E3E4E8"/>
<circle cx="716" cy="434" r="2" fill="#E3E4E8"/>
<circle cx="750" cy="434" r="2" fill="#E3E4E8"/>
<circle cx="784" cy="434" r="2" fill="#E3E4E8"/>
<circle cx="818" cy="434" r="2" fill="#E3E4E8"/>
<circle cx="2" cy="488" r="2" fill="#E3E4E8"/>
<circle cx="36" cy="488" r="2" fill="#E3E4E8"/>
<circle cx="70" cy="488" r="2" fill="#E3E4E8"/>
<circle cx="104" cy="488" r="2" fill="#E3E4E8"/>
<circle cx="138" cy="488" r="2" fill="#E3E4E8"/>
<circle cx="172" cy="488" r="2" fill="#E3E4E8"/>
<circle cx="206" cy="488" r="2" fill="#E3E4E8"/>
<circle cx="240" cy="488" r="2" fill="#E3E4E8"/>
<circle cx="274" cy="488" r="2" fill="#E3E4E8"/>
<circle cx="308" cy="488" r="2" fill="#E3E4E8"/>
<circle cx="342" cy="488" r="2" fill="#E3E4E8"/>
<circle cx="376" cy="488" r="2" fill="#E3E4E8"/>
<circle cx="410" cy="488" r="2" fill="#E3E4E8"/>
<circle cx="444" cy="488" r="2" fill="#E3E4E8"/>
<circle cx="478" cy="488" r="2" fill="#E3E4E8"/>
<circle cx="512" cy="488" r="2" fill="#E3E4E8"/>
<circle cx="546" cy="488" r="2" fill="#E3E4E8"/>
<circle cx="580" cy="488" r="2" fill="#E3E4E8"/>
<circle cx="614" cy="488" r="2" fill="#E3E4E8"/>
<circle cx="648" cy="488" r="2" fill="#E3E4E8"/>
<circle cx="682" cy="488" r="2" fill="#E3E4E8"/>
<circle cx="716" cy="488" r="2" fill="#E3E4E8"/>
<circle cx="750" cy="488" r="2" fill="#E3E4E8"/>
<circle cx="784" cy="488" r="2" fill="#E3E4E8"/>
<circle cx="818" cy="488" r="2" fill="#E3E4E8"/>
<circle cx="2" cy="542" r="2" fill="#E3E4E8"/>
<circle cx="36" cy="542" r="2" fill="#E3E4E8"/>
<circle cx="70" cy="542" r="2" fill="#E3E4E8"/>
<circle cx="104" cy="542" r="2" fill="#E3E4E8"/>
<circle cx="138" cy="542" r="2" fill="#E3E4E8"/>
<circle cx="172" cy="542" r="2" fill="#E3E4E8"/>
<circle cx="206" cy="542" r="2" fill="#E3E4E8"/>
<circle cx="240" cy="542" r="2" fill="#E3E4E8"/>
<circle cx="274" cy="542" r="2" fill="#E3E4E8"/>
<circle cx="308" cy="542" r="2" fill="#E3E4E8"/>
<circle cx="342" cy="542" r="2" fill="#E3E4E8"/>
<circle cx="376" cy="542" r="2" fill="#E3E4E8"/>
<circle cx="410" cy="542" r="2" fill="#E3E4E8"/>
<circle cx="444" cy="542" r="2" fill="#E3E4E8"/>
<circle cx="478" cy="542" r="2" fill="#E3E4E8"/>
<circle cx="512" cy="542" r="2" fill="#E3E4E8"/>
<circle cx="546" cy="542" r="2" fill="#E3E4E8"/>
<circle cx="580" cy="542" r="2" fill="#E3E4E8"/>
<circle cx="614" cy="542" r="2" fill="#E3E4E8"/>
<circle cx="648" cy="542" r="2" fill="#E3E4E8"/>
<circle cx="682" cy="542" r="2" fill="#E3E4E8"/>
<circle cx="716" cy="542" r="2" fill="#E3E4E8"/>
<circle cx="750" cy="542" r="2" fill="#E3E4E8"/>
<circle cx="784" cy="542" r="2" fill="#E3E4E8"/>
<circle cx="818" cy="542" r="2" fill="#E3E4E8"/>
<circle cx="2" cy="596" r="2" fill="#E3E4E8"/>
<circle cx="36" cy="596" r="2" fill="#E3E4E8"/>
<circle cx="70" cy="596" r="2" fill="#E3E4E8"/>
<circle cx="104" cy="596" r="2" fill="#E3E4E8"/>
<circle cx="138" cy="596" r="2" fill="#E3E4E8"/>
<circle cx="172" cy="596" r="2" fill="#E3E4E8"/>
<circle cx="206" cy="596" r="2" fill="#E3E4E8"/>
<circle cx="240" cy="596" r="2" fill="#E3E4E8"/>
<circle cx="274" cy="596" r="2" fill="#E3E4E8"/>
<circle cx="308" cy="596" r="2" fill="#E3E4E8"/>
<circle cx="342" cy="596" r="2" fill="#E3E4E8"/>
<circle cx="376" cy="596" r="2" fill="#E3E4E8"/>
<circle cx="410" cy="596" r="2" fill="#E3E4E8"/>
<circle cx="444" cy="596" r="2" fill="#E3E4E8"/>
<circle cx="478" cy="596" r="2" fill="#E3E4E8"/>
<circle cx="512" cy="596" r="2" fill="#E3E4E8"/>
<circle cx="546" cy="596" r="2" fill="#E3E4E8"/>
<circle cx="580" cy="596" r="2" fill="#E3E4E8"/>
<circle cx="614" cy="596" r="2" fill="#E3E4E8"/>
<circle cx="648" cy="596" r="2" fill="#E3E4E8"/>
<circle cx="682" cy="596" r="2" fill="#E3E4E8"/>
<circle cx="716" cy="596" r="2" fill="#E3E4E8"/>
<circle cx="750" cy="596" r="2" fill="#E3E4E8"/>
<circle cx="784" cy="596" r="2" fill="#E3E4E8"/>
<circle cx="818" cy="596" r="2" fill="#E3E4E8"/>
<circle cx="2" cy="650" r="2" fill="#E3E4E8"/>
<circle cx="36" cy="650" r="2" fill="#E3E4E8"/>
<circle cx="70" cy="650" r="2" fill="#E3E4E8"/>
<circle cx="104" cy="650" r="2" fill="#E3E4E8"/>
<circle cx="138" cy="650" r="2" fill="#E3E4E8"/>
<circle cx="172" cy="650" r="2" fill="#E3E4E8"/>
<circle cx="206" cy="650" r="2" fill="#E3E4E8"/>
<circle cx="240" cy="650" r="2" fill="#E3E4E8"/>
<circle cx="274" cy="650" r="2" fill="#E3E4E8"/>
<circle cx="308" cy="650" r="2" fill="#E3E4E8"/>
<circle cx="342" cy="650" r="2" fill="#E3E4E8"/>
<circle cx="376" cy="650" r="2" fill="#E3E4E8"/>
<circle cx="410" cy="650" r="2" fill="#E3E4E8"/>
<circle cx="444" cy="650" r="2" fill="#E3E4E8"/>
<circle cx="478" cy="650" r="2" fill="#E3E4E8"/>
<circle cx="512" cy="650" r="2" fill="#E3E4E8"/>
<circle cx="546" cy="650" r="2" fill="#E3E4E8"/>
<circle cx="580" cy="650" r="2" fill="#E3E4E8"/>
<circle cx="614" cy="650" r="2" fill="#E3E4E8"/>
<circle cx="648" cy="650" r="2" fill="#E3E4E8"/>
<circle cx="682" cy="650" r="2" fill="#E3E4E8"/>
<circle cx="716" cy="650" r="2" fill="#E3E4E8"/>
<circle cx="750" cy="650" r="2" fill="#E3E4E8"/>
<circle cx="784" cy="650" r="2" fill="#E3E4E8"/>
<circle cx="818" cy="650" r="2" fill="#E3E4E8"/>
</svg>
